<svg width="46" height="13" viewBox="0 0 46 13" fill="none" xmlns="http://www.w3.org/2000/svg">
<path d="M5.26172 0.0488281L7.95312 1.87695C6.37891 4.02669 5.56641 6.3457 5.51562 8.83398V12.2871H0.84375V9.3418C0.84375 7.61523 1.25 5.9056 2.0625 4.21289C2.89193 2.52018 3.95833 1.13216 5.26172 0.0488281ZM13.2598 0.0488281L15.9512 1.87695C14.377 4.02669 13.5645 6.3457 13.5137 8.83398V12.2871H8.8418V9.3418C8.8418 7.61523 9.24805 5.9056 10.0605 4.21289C10.89 2.52018 11.9564 1.13216 13.2598 0.0488281ZM33.6738 12.9727L31.0078 11.1445C32.582 8.94401 33.3945 6.625 33.4453 4.1875V0.53125H38.0918V3.83203C38.0749 5.52474 37.6517 7.21745 36.8223 8.91016C36.0098 10.5859 34.9603 11.9401 33.6738 12.9727ZM41.4688 12.9727L38.8027 11.1445C40.377 8.94401 41.1895 6.625 41.2402 4.1875V0.53125H45.8867V3.83203C45.8698 5.52474 45.4466 7.21745 44.6172 8.91016C43.8047 10.5859 42.7552 11.9401 41.4688 12.9727Z" fill="#00CA90"/>
</svg>
